<svg width="221" height="196" viewBox="0 0 221 196" fill="none" xmlns="http://www.w3.org/2000/svg">
<path d="M72.791 10.9106H189.65C196.728 10.9106 202.466 16.6701 202.466 23.7747V53.3542H72.791V10.9106Z" fill="#0D70C8" fill-opacity="0.1"/>
<path d="M220.751 45.681V181.038C220.751 189.025 214.301 195.5 206.344 195.5H14.4078C6.45057 195.5 0 189.025 0 181.038V14.9616C0 6.97465 6.45057 0.5 14.4078 0.5H73.5281C78.3063 0.5 82.7737 2.87768 85.4545 6.84782L97.6254 24.8715C100.306 28.8415 104.774 31.2194 109.552 31.2194H206.344C214.301 31.2194 220.751 37.694 220.751 45.681Z" fill="#0D70C8"/>
<path d="M23.3345 195.499H14.4081C6.44997 195.499 0 189.025 0 181.039V14.9609C0 6.97453 6.44997 0.500488 14.4081 0.500488H23.3345C15.3764 0.500488 8.9264 6.97453 8.9264 14.9609V181.039C8.9264 189.025 15.3764 195.499 23.3345 195.499Z" fill="#AEAEAE"/>
<path d="M197.665 195.499H206.591C214.55 195.499 221 189.029 221 181.047V45.6714C221 37.6895 214.55 31.2192 206.591 31.2192H197.665C205.623 31.2192 212.073 37.6895 212.073 45.6714V181.047C212.073 189.029 205.623 195.499 197.665 195.499Z" fill="#0D70C8"/>
<path d="M197.665 195.499H206.591C214.55 195.499 221 189.029 221 181.047V45.6714C221 37.6895 214.55 31.2192 206.591 31.2192H197.665C205.623 31.2192 212.073 37.6895 212.073 45.6714V181.047C212.073 189.029 205.623 195.499 197.665 195.499Z" fill="black" fill-opacity="0.2"/>
<path d="M161.068 166.392H60.0831C48.6144 166.392 41.7392 153.6 48.0373 143.979L98.5297 66.8503C104.223 58.1534 116.928 58.1534 122.621 66.8503L173.114 143.979C179.412 153.6 172.537 166.392 161.068 166.392Z" fill="white"/>
<path d="M116.287 91.5453L114.046 127.246C113.922 129.211 112.235 130.704 110.277 130.58C108.465 130.466 107.056 129.006 106.954 127.231L104.863 91.5212C104.677 88.3542 107.084 85.6359 110.24 85.4497C113.64 85.2246 116.521 88.1365 116.287 91.5453Z" fill="#EF4444"/>
<path d="M110.5 147.154C113.295 147.154 115.562 144.88 115.562 142.074C115.562 139.268 113.295 136.994 110.5 136.994C107.705 136.994 105.438 139.268 105.438 142.074C105.438 144.88 107.705 147.154 110.5 147.154Z" fill="#EF4444"/>
</svg>
